<svg xmlns="http://www.w3.org/2000/svg" xmlns:xlink="http://www.w3.org/1999/xlink" width="40" height="40" viewBox="0 0 40 40"><defs><linearGradient id="a" x1="20" y1="40" x2="20" gradientUnits="userSpaceOnUse"><stop offset="0" stop-color="#7d809d"/><stop offset="1" stop-color="#454a73"/></linearGradient><linearGradient id="b" x1="20" y1="40" x2="20" gradientUnits="userSpaceOnUse"><stop offset="0" stop-color="#3d4266"/><stop offset="1" stop-color="#616588"/></linearGradient></defs><title>btn_enlargeimage_icon_blue_up_2_down</title><path d="M20,40A20,20,0,0,1,0,20H0a20,20,0,0,1,40,0h0A20,20,0,0,1,20,40Z" style="fill:url(#a)"/><path d="M20,.6A19.4,19.4,0,1,1,.6,20,19.422,19.422,0,0,1,20,.6M20,0A20,20,0,1,0,40,20,20,20,0,0,0,20,0Z" style="fill:url(#b)"/><polygon points="17.668 12.299 17.668 13.997 13.997 13.997 13.997 17.668 12.299 17.668 12.299 12.299 17.668 12.299" style="fill:#fff"/><polygon points="12.299 22.332 13.997 22.332 13.997 26.003 17.668 26.003 17.668 27.701 12.299 27.701 12.299 22.332" style="fill:#fff"/><polygon points="22.332 27.701 22.332 26.003 26.003 26.003 26.003 22.332 27.701 22.332 27.701 27.701 22.332 27.701" style="fill:#fff"/><polygon points="27.701 17.668 26.003 17.668 26.003 13.997 22.332 13.997 22.332 12.299 27.701 12.299 27.701 17.668" style="fill:#fff"/></svg>