<svg xmlns="http://www.w3.org/2000/svg" xmlns:xlink="http://www.w3.org/1999/xlink" width="40" height="40" viewBox="0 0 40 40"><defs><linearGradient id="a" x1="20" y1="40" x2="20" gradientUnits="userSpaceOnUse"><stop offset="0" stop-color="#454a73"/><stop offset="1" stop-color="#7d809d"/></linearGradient><linearGradient id="b" x1="20" y1="40" x2="20" gradientUnits="userSpaceOnUse"><stop offset="0" stop-color="#3d4266"/><stop offset="1" stop-color="#616588"/></linearGradient></defs><title>btn_shrinkimage_icon_blue_up_2</title><path d="M20,40A20,20,0,0,1,0,20H0a20,20,0,0,1,40,0h0A20,20,0,0,1,20,40Z" style="fill:url(#a)"/><path d="M20,1A19,19,0,1,1,1,20,19.021,19.021,0,0,1,20,1m0-1A20,20,0,1,0,40,20,20,20,0,0,0,20,0Z" style="fill:url(#b)"/><polygon points="11.464 16.832 11.464 15.134 15.134 15.134 15.134 11.464 16.832 11.464 16.832 16.832 11.464 16.832" style="fill:#fff"/><polygon points="16.832 28.536 15.134 28.536 15.134 24.866 11.464 24.866 11.464 23.168 16.832 23.168 16.832 28.536" style="fill:#fff"/><polygon points="28.536 23.168 28.536 24.866 24.866 24.866 24.866 28.536 23.168 28.536 23.168 23.168 28.536 23.168" style="fill:#fff"/><polygon points="23.168 11.464 24.866 11.464 24.866 15.134 28.536 15.134 28.536 16.832 23.168 16.832 23.168 11.464" style="fill:#fff"/></svg>