<svg xmlns="http://www.w3.org/2000/svg" xmlns:xlink="http://www.w3.org/1999/xlink" viewBox="0 0 63.63 26"><defs><style>.cls-1{opacity:0.5;}.cls-2{fill:#f4f4f7;}.cls-3{fill:url(#linear-gradient);}.cls-4{fill:#454a73;}</style><linearGradient id="linear-gradient" x1="31.81" y1="26" x2="31.81" gradientUnits="userSpaceOnUse"><stop offset="0" stop-color="#dadbe3"/><stop offset="1" stop-color="#f4f4f7"/></linearGradient></defs><title>btn_close_light_dim_small</title><g id="Layer_2" data-name="Layer 2"><g id="Layer_2-2" data-name="Layer 2"><g class="cls-1"><rect class="cls-2" width="63.62" height="26" rx="13" ry="13"/><path class="cls-3" d="M50.63.6a12.4,12.4,0,0,1,0,24.8H13A12.4,12.4,0,1,1,13,.6H50.63m0-.6H13a13,13,0,0,0,0,26H50.63a13,13,0,0,0,0-26Z"/><path class="cls-4" d="M19.39,17.25V8.73h2v6.79h4.13v1.73Z"/><path class="cls-4" d="M30.56,15.57a1.63,1.63,0,0,0,.85-.21A1.68,1.68,0,0,0,32,14.8a2.38,2.38,0,0,0,.31-.8,4.7,4.7,0,0,0,.09-.92V8.73h2v4.36a6,6,0,0,1-.22,1.66,3.83,3.83,0,0,1-.68,1.34,3.2,3.2,0,0,1-1.18.91,4,4,0,0,1-1.7.33A4,4,0,0,1,28.82,17,3.23,3.23,0,0,1,27.65,16,3.85,3.85,0,0,1,27,14.69a6.09,6.09,0,0,1-.21-1.61V8.73h2v4.36a4.39,4.39,0,0,0,.1.94,2.49,2.49,0,0,0,.31.79,1.54,1.54,0,0,0,1.4.76Z"/><path class="cls-4" d="M36.88,17.25V8.73h2V12.4L42,8.73h2.21L41,12.53l3.41,4.72H42.15l-2.41-3.43-.89.92v2.51Z"/></g></g></g></svg>