<svg xmlns="http://www.w3.org/2000/svg" xmlns:xlink="http://www.w3.org/1999/xlink" viewBox="0 0 93.62 26"><defs><style>.cls-1{opacity:0.5;}.cls-2{fill:url(#linear-gradient);}.cls-3{fill:url(#linear-gradient-2);}.cls-4{fill:#fff;}</style><linearGradient id="linear-gradient" x1="46.81" y1="26" x2="46.81" gradientUnits="userSpaceOnUse"><stop offset="0" stop-color="#454a73"/><stop offset="1" stop-color="#7d809d"/></linearGradient><linearGradient id="linear-gradient-2" x1="46.81" y1="26" x2="46.81" gradientUnits="userSpaceOnUse"><stop offset="0" stop-color="#3d4266"/><stop offset="1" stop-color="#616588"/></linearGradient></defs><title>btn_showanswers_blue_up_small</title><g id="Layer_2" data-name="Layer 2"><g id="Layer_2-2" data-name="Layer 2"><rect class="cls-2" width="93.62" height="26" rx="13" ry="13"/><path class="cls-3" d="M80.63.6a12.4,12.4,0,0,1,0,24.8H13A12.4,12.4,0,0,1,13,.6H80.63m0-.6H13a13,13,0,0,0,0,26H80.63a13,13,0,0,0,0-26Z"/><path class="cls-4" d="M18.56,8.73l2,6,2-6h2.08l-3.23,8.52H19.73L16.47,8.73Z"/><path class="cls-4" d="M26.43,17.25V8.73h2v8.52Z"/><path class="cls-4" d="M36.16,11.22a1.24,1.24,0,0,0-.25-.18,4.83,4.83,0,0,0-.54-.28,5.35,5.35,0,0,0-.71-.25,2.86,2.86,0,0,0-.77-.11q-1.06,0-1.06.71a.56.56,0,0,0,.11.36,1,1,0,0,0,.34.26,3.09,3.09,0,0,0,.56.21l.78.22a10.36,10.36,0,0,1,1.1.37,3,3,0,0,1,.83.49,2,2,0,0,1,.53.71,2.48,2.48,0,0,1,.19,1A2.53,2.53,0,0,1,37,16a2.27,2.27,0,0,1-.71.8,3,3,0,0,1-1,.44,5.09,5.09,0,0,1-1.19.14,6.63,6.63,0,0,1-1-.07,7.08,7.08,0,0,1-1-.21,7.75,7.75,0,0,1-.91-.33,5.07,5.07,0,0,1-.81-.44l.86-1.72a1.65,1.65,0,0,0,.31.23,4.56,4.56,0,0,0,.65.34,6.73,6.73,0,0,0,.87.3,3.66,3.66,0,0,0,1,.13q1,0,1-.64a.54.54,0,0,0-.16-.4,1.49,1.49,0,0,0-.43-.28,4.64,4.64,0,0,0-.65-.23l-.82-.24a7.06,7.06,0,0,1-1-.39,2.71,2.71,0,0,1-.71-.49,1.77,1.77,0,0,1-.42-.64,2.34,2.34,0,0,1-.14-.84,2.67,2.67,0,0,1,.25-1.19,2.57,2.57,0,0,1,.68-.87,3,3,0,0,1,1-.53A4,4,0,0,1,34,8.66a4.61,4.61,0,0,1,.88.08,6.57,6.57,0,0,1,.83.22,5.94,5.94,0,0,1,.74.3l.63.34Z"/><path class="cls-4" d="M48.38,11.22a1.25,1.25,0,0,0-.25-.18,4.86,4.86,0,0,0-.54-.28,5.3,5.3,0,0,0-.71-.25,2.85,2.85,0,0,0-.77-.11q-1.06,0-1.06.71a.56.56,0,0,0,.11.36,1,1,0,0,0,.34.26,3.14,3.14,0,0,0,.56.21l.78.22a10.31,10.31,0,0,1,1.1.37,3,3,0,0,1,.83.49,2,2,0,0,1,.53.71,2.48,2.48,0,0,1,.19,1A2.52,2.52,0,0,1,49.22,16a2.27,2.27,0,0,1-.71.8,3,3,0,0,1-1,.44,5.1,5.1,0,0,1-1.19.14,6.65,6.65,0,0,1-1-.07,7.11,7.11,0,0,1-1-.21,7.81,7.81,0,0,1-.91-.33,5.06,5.06,0,0,1-.81-.44l.86-1.72a1.63,1.63,0,0,0,.31.23,4.58,4.58,0,0,0,.65.34,6.73,6.73,0,0,0,.87.3,3.65,3.65,0,0,0,1,.13q1,0,1-.64a.53.53,0,0,0-.16-.4,1.47,1.47,0,0,0-.43-.28,4.64,4.64,0,0,0-.65-.23l-.82-.24a7,7,0,0,1-1-.39,2.68,2.68,0,0,1-.71-.49,1.76,1.76,0,0,1-.42-.64,2.34,2.34,0,0,1-.14-.84,2.67,2.67,0,0,1,.25-1.19A2.57,2.57,0,0,1,44,9.37a3,3,0,0,1,1-.53,4,4,0,0,1,1.21-.18,4.61,4.61,0,0,1,.88.08,6.54,6.54,0,0,1,.83.22,6.06,6.06,0,0,1,.74.3l.63.34Z"/><path class="cls-4" d="M52.71,8.73l2,6,2-6h2.08l-3.23,8.52H53.89L50.62,8.73Z"/><path class="cls-4" d="M62.17,8.73h1.78L67,17.25H65l-.66-1.91H61.72l-.65,1.91h-2ZM64,14l-1-3-1,3Z"/><path class="cls-4" d="M68.91,17.25V8.73h3.84A2.47,2.47,0,0,1,73.86,9a3,3,0,0,1,.88.66,3.12,3.12,0,0,1,.58.92,2.75,2.75,0,0,1,.21,1,3,3,0,0,1-.1.76,2.92,2.92,0,0,1-.28.69,2.62,2.62,0,0,1-1,1L76,17.25H73.79L72.16,14.5H70.88v2.75Zm2-4.46h1.8a.74.74,0,0,0,.6-.33,1.35,1.35,0,0,0,.25-.85,1.19,1.19,0,0,0-.29-.84.85.85,0,0,0-.62-.31H70.88Z"/></g></g></svg>