<svg xmlns="http://www.w3.org/2000/svg" viewBox="0 0 24 24"><defs><style>.cls-1{opacity:0.5;}.cls-2{fill:#fff;}.cls-3{fill:#454a73;}</style></defs><title>btn_answer_no_up</title><g id="Layer_2" data-name="Layer 2"><g id="Layer_2-2" data-name="Layer 2"><circle class="cls-2" cx="12" cy="12" r="12"/><path class="cls-3" d="M9.64,15H8.28l-2-3.54V15H4.89V9.26H6.27l2,3.54V9.26H9.64Zm4.55-2.41H12V13.9h2.55V15H10.67V9.26H14.6v1.06H12v1.2H14.2Zm3.38-3.27h1.37v3.9a1.87,1.87,0,0,1-.25,1,1.72,1.72,0,0,1-.7.66A2.15,2.15,0,0,1,17,15a2.07,2.07,0,0,1-1.45-.47A1.7,1.7,0,0,1,15,13.23h1.38a.94.94,0,0,0,.13.57A.53.53,0,0,0,17,14a.51.51,0,0,0,.44-.21,1,1,0,0,0,.15-.6Z"/></g></g></svg>