<svg xmlns="http://www.w3.org/2000/svg" xmlns:xlink="http://www.w3.org/1999/xlink" viewBox="0 0 193.63 26"><defs><style>.cls-1{opacity:0.5;}.cls-2{fill:url(#linear-gradient);}.cls-3{fill:url(#linear-gradient-2);}.cls-4{fill:#fff;}</style><linearGradient id="linear-gradient" x1="96.81" y1="26" x2="96.81" gradientUnits="userSpaceOnUse"><stop offset="0" stop-color="#7d809d"/><stop offset="1" stop-color="#454a73"/></linearGradient><linearGradient id="linear-gradient-2" x1="96.81" y1="26" x2="96.81" gradientUnits="userSpaceOnUse"><stop offset="0" stop-color="#3d4266"/><stop offset="1" stop-color="#616588"/></linearGradient></defs><title>btn_changepassword_blue_down_small</title><g id="Layer_2" data-name="Layer 2"><g id="Layer_2-2" data-name="Layer 2"><rect class="cls-2" width="193.62" height="26" rx="13" ry="13"/><path class="cls-3" d="M180.63.6a12.4,12.4,0,0,1,0,24.8H13A12.4,12.4,0,0,1,13,.6H180.63m0-.6H13A13,13,0,0,0,0,13H0A13,13,0,0,0,13,26H180.63a13,13,0,0,0,13-13h0a13,13,0,0,0-13-13Z"/><path class="cls-4" d="M24,8.73h6.18v1.73H26.43v1.6h3.06v1.72H26.43v1.75h3.82v1.73H24.48V15.34H21.9l-1.09,1.91h-2.1Zm.36,4.88V10.92l-1.6,2.69Z"/><path class="cls-4" d="M34.44,12.38v4.87h-2V8.73H34l4,5v-5h2v8.52H38.36Z"/><path class="cls-4" d="M42.6,17.25V8.73h3.18a4.7,4.7,0,0,1,1.85.34,3.71,3.71,0,0,1,2.13,2.26A5,5,0,0,1,50,13a4.9,4.9,0,0,1-.3,1.76,3.78,3.78,0,0,1-.86,1.34,3.85,3.85,0,0,1-1.34.86,4.78,4.78,0,0,1-1.75.31ZM48,13a3.31,3.31,0,0,0-.15-1,2.3,2.3,0,0,0-.44-.8,1.9,1.9,0,0,0-.71-.52,2.38,2.38,0,0,0-.95-.18H44.57v5.06h1.21a2.29,2.29,0,0,0,1-.19,1.94,1.94,0,0,0,.7-.53,2.43,2.43,0,0,0,.43-.8A3.27,3.27,0,0,0,48,13Z"/><path class="cls-4" d="M52.21,17.25V8.73H56A2.47,2.47,0,0,1,57.16,9a3,3,0,0,1,.88.66,3.09,3.09,0,0,1,.58.92,2.74,2.74,0,0,1,.21,1,3,3,0,0,1-.1.76,3,3,0,0,1-.28.69,2.61,2.61,0,0,1-1,1l1.87,3.17H57.09L55.46,14.5H54.18v2.75Zm2-4.46H56a.74.74,0,0,0,.6-.33,1.35,1.35,0,0,0,.25-.85,1.19,1.19,0,0,0-.29-.84.85.85,0,0,0-.62-.31H54.18Z"/><path class="cls-4" d="M67.26,15.52v1.73h-6V8.73h5.88v1.73H63.24v1.66H66.6v1.6H63.24v1.81Z"/><path class="cls-4" d="M75.24,8.73H77l3.11,8.52h-2l-.66-1.91H74.79l-.65,1.91h-2ZM77.12,14l-1-3-1,3Z"/><path class="cls-4" d="M82,17.25V8.73h3.18A4.69,4.69,0,0,1,87,9.06a3.71,3.71,0,0,1,2.13,2.26A5,5,0,0,1,89.41,13a4.9,4.9,0,0,1-.3,1.76,3.77,3.77,0,0,1-.86,1.34,3.85,3.85,0,0,1-1.34.86,4.78,4.78,0,0,1-1.75.31ZM87.41,13a3.32,3.32,0,0,0-.15-1,2.31,2.31,0,0,0-.44-.8,1.9,1.9,0,0,0-.71-.52,2.38,2.38,0,0,0-.95-.18H83.95v5.06h1.21a2.29,2.29,0,0,0,1-.19,2,2,0,0,0,.7-.53,2.44,2.44,0,0,0,.43-.8A3.28,3.28,0,0,0,87.41,13Z"/><path class="cls-4" d="M97.45,16.41a3.2,3.2,0,0,1-2.24.9A4,4,0,0,1,93.62,17a3.94,3.94,0,0,1-1.3-.89,4.21,4.21,0,0,1-.88-1.39,4.76,4.76,0,0,1-.32-1.78,4.27,4.27,0,0,1,.32-1.66,4.17,4.17,0,0,1,.89-1.36,4.24,4.24,0,0,1,3-1.25,4.17,4.17,0,0,1,2.08.5,3.24,3.24,0,0,1,1.33,1.36l-1.46,1.1a2.1,2.1,0,0,0-.83-.89,2.31,2.31,0,0,0-1.18-.32,2,2,0,0,0-.89.2,2,2,0,0,0-.69.55,2.57,2.57,0,0,0-.44.82,3.15,3.15,0,0,0-.16,1,3,3,0,0,0,.17,1,2.52,2.52,0,0,0,.47.81,2.11,2.11,0,0,0,1.63.73,2.71,2.71,0,0,0,2.08-1.07v-.26H95.79V12.8h3.29v4.45H97.45Z"/><path class="cls-4" d="M103.71,8.73h1.78l3.11,8.52h-2l-.66-1.91h-2.65l-.65,1.91h-2ZM105.6,14l-1-3-1,3Z"/><path class="cls-4" d="M112.42,12.38v4.87h-2V8.73H112l4,5v-5h2v8.52h-1.58Z"/><path class="cls-4" d="M126.44,16.41a3.21,3.21,0,0,1-2.24.9,4,4,0,0,1-1.58-.32,4,4,0,0,1-1.3-.89,4.21,4.21,0,0,1-.88-1.39,4.76,4.76,0,0,1-.32-1.78,4.27,4.27,0,0,1,.32-1.66,4.18,4.18,0,0,1,.89-1.36,4.24,4.24,0,0,1,3-1.25,4.17,4.17,0,0,1,2.08.5,3.24,3.24,0,0,1,1.33,1.36l-1.46,1.1a2.1,2.1,0,0,0-.83-.89,2.31,2.31,0,0,0-1.18-.32,2,2,0,0,0-.89.2,2.05,2.05,0,0,0-.69.55,2.58,2.58,0,0,0-.44.82,3.15,3.15,0,0,0-.16,1,3,3,0,0,0,.17,1,2.5,2.5,0,0,0,.47.81,2.11,2.11,0,0,0,1.63.73,2.71,2.71,0,0,0,2.08-1.07v-.26h-1.66V12.8h3.29v4.45h-1.63Z"/><path class="cls-4" d="M135.5,11.22a1.19,1.19,0,0,0-.25-.18,4.86,4.86,0,0,0-.54-.28,5.3,5.3,0,0,0-.71-.25,2.85,2.85,0,0,0-.77-.11q-1.06,0-1.06.71a.56.56,0,0,0,.11.36,1,1,0,0,0,.34.26,3.13,3.13,0,0,0,.56.21l.78.22a10.31,10.31,0,0,1,1.1.37,3,3,0,0,1,.83.49,2,2,0,0,1,.53.71,2.48,2.48,0,0,1,.19,1,2.53,2.53,0,0,1-.27,1.22,2.29,2.29,0,0,1-.71.8,3,3,0,0,1-1,.44,5.09,5.09,0,0,1-1.19.14,6.65,6.65,0,0,1-1-.07,7.11,7.11,0,0,1-1-.21,7.8,7.8,0,0,1-.91-.33,5,5,0,0,1-.81-.44l.86-1.72a1.66,1.66,0,0,0,.31.23,4.63,4.63,0,0,0,.65.34,6.73,6.73,0,0,0,.87.3,3.65,3.65,0,0,0,1,.13q1,0,1-.64a.54.54,0,0,0-.16-.4,1.48,1.48,0,0,0-.43-.28,4.58,4.58,0,0,0-.65-.23l-.82-.24a7,7,0,0,1-1-.39,2.7,2.7,0,0,1-.71-.49,1.77,1.77,0,0,1-.42-.64,2.34,2.34,0,0,1-.14-.84,2.67,2.67,0,0,1,.25-1.19,2.57,2.57,0,0,1,.68-.87,3,3,0,0,1,1-.53,4,4,0,0,1,1.21-.18,4.61,4.61,0,0,1,.88.08A6.54,6.54,0,0,1,135,9a6,6,0,0,1,.74.3l.63.34Z"/><path class="cls-4" d="M138.79,17.25V8.73h2V12.4l3.12-3.67h2.21l-3.19,3.8,3.41,4.72h-2.24l-2.41-3.43-.89.92v2.51Z"/><path class="cls-4" d="M151.23,17.32a4,4,0,0,1-1.73-.37,4.24,4.24,0,0,1-1.33-1,4.44,4.44,0,0,1-.86-1.39A4.36,4.36,0,0,1,147,13a4.25,4.25,0,0,1,.32-1.62A4.3,4.3,0,0,1,149.56,9a4.07,4.07,0,0,1,1.7-.35,4,4,0,0,1,1.73.37,4.2,4.2,0,0,1,1.33,1,4.45,4.45,0,0,1,.85,1.39,4.38,4.38,0,0,1,.3,1.58,4.25,4.25,0,0,1-.32,1.62A4.31,4.31,0,0,1,152.94,17,4,4,0,0,1,151.23,17.32ZM149,13a3.19,3.19,0,0,0,.14,1,2.56,2.56,0,0,0,.43.82,2.1,2.1,0,0,0,.7.58,2.07,2.07,0,0,0,1,.22,2,2,0,0,0,1-.23,2.13,2.13,0,0,0,.7-.59,2.62,2.62,0,0,0,.41-.83,3.28,3.28,0,0,0,.14-.94,3.19,3.19,0,0,0-.14-1,2.42,2.42,0,0,0-.43-.82,2.14,2.14,0,0,0-.7-.56,2.08,2.08,0,0,0-1-.21,2,2,0,0,0-1,.22,2.18,2.18,0,0,0-.7.58,2.46,2.46,0,0,0-.42.82A3.29,3.29,0,0,0,149,13Z"/><path class="cls-4" d="M157.64,17.25V8.73h3.18a4.69,4.69,0,0,1,1.85.34,3.71,3.71,0,0,1,2.13,2.26,5.24,5.24,0,0,1,0,3.41,3.79,3.79,0,0,1-.86,1.34,3.85,3.85,0,0,1-1.34.86,4.78,4.78,0,0,1-1.75.31ZM163.06,13a3.32,3.32,0,0,0-.15-1,2.3,2.3,0,0,0-.44-.8,1.91,1.91,0,0,0-.71-.52,2.39,2.39,0,0,0-.95-.18h-1.21v5.06h1.21a2.29,2.29,0,0,0,1-.19,1.94,1.94,0,0,0,.7-.53,2.43,2.43,0,0,0,.43-.8A3.28,3.28,0,0,0,163.06,13Z"/><path class="cls-4" d="M173.24,15.52v1.73h-6V8.73h5.88v1.73h-3.91v1.66h3.36v1.6h-3.36v1.81Z"/></g></g></svg>