<svg xmlns="http://www.w3.org/2000/svg" xmlns:xlink="http://www.w3.org/1999/xlink" viewBox="0 0 113.62 26"><defs><style>.cls-1{opacity:0.5;}.cls-2{fill:url(#linear-gradient);}.cls-3{fill:url(#linear-gradient-2);}.cls-4{fill:#454a73;}</style><linearGradient id="linear-gradient" x1="56.81" y1="26" x2="56.81" gradientUnits="userSpaceOnUse"><stop offset="0" stop-color="#fbfbfc"/><stop offset="1" stop-color="#e9e9ee"/></linearGradient><linearGradient id="linear-gradient-2" x1="56.81" y1="26" x2="56.81" gradientUnits="userSpaceOnUse"><stop offset="0" stop-color="#dadbe3"/><stop offset="1" stop-color="#f4f4f7"/></linearGradient></defs><title>btn_annuller_light_down_small</title><g id="Layer_2" data-name="Layer 2"><g id="Layer_2-2" data-name="Layer 2"><rect class="cls-2" width="113.62" height="26" rx="13" ry="13"/><path class="cls-3" d="M100.62.6a12.4,12.4,0,0,1,0,24.8H13A12.4,12.4,0,0,1,13,.6h87.63m0-.6H13A13,13,0,0,0,0,13H0A13,13,0,0,0,13,26h87.63a13,13,0,0,0,13-13h0a13,13,0,0,0-13-13Z"/><path class="cls-4" d="M23.64,8.73h1.78l3.11,8.52h-2l-.66-1.91H23.2l-.65,1.91h-2ZM25.52,14l-1-3-1,3Z"/><path class="cls-4" d="M32.35,12.38v4.87h-2V8.73h1.54l4,5v-5h2v8.52H36.28Z"/><path class="cls-4" d="M42.48,12.38v4.87h-2V8.73H42l4,5v-5h2v8.52H46.4Z"/><path class="cls-4" d="M54.3,15.57a1.63,1.63,0,0,0,.85-.21,1.68,1.68,0,0,0,.56-.56A2.38,2.38,0,0,0,56,14a4.7,4.7,0,0,0,.09-.92V8.73h2v4.36a6,6,0,0,1-.22,1.66,3.83,3.83,0,0,1-.68,1.34A3.2,3.2,0,0,1,56,17a4,4,0,0,1-1.7.33A4,4,0,0,1,52.56,17,3.23,3.23,0,0,1,51.39,16a3.85,3.85,0,0,1-.66-1.35,6.09,6.09,0,0,1-.21-1.61V8.73h2v4.36a4.39,4.39,0,0,0,.1.94,2.49,2.49,0,0,0,.31.79,1.54,1.54,0,0,0,1.4.76Z"/><path class="cls-4" d="M60.62,17.25V8.73h2v6.79h4.13v1.73Z"/><path class="cls-4" d="M68.66,17.25V8.73h2v6.79h4.13v1.73Z"/><path class="cls-4" d="M82.69,15.52v1.73h-6V8.73h5.88v1.73H78.67v1.66H82v1.6H78.67v1.81Z"/><path class="cls-4" d="M84.91,17.25V8.73h3.84A2.47,2.47,0,0,1,89.86,9a3,3,0,0,1,.88.66,3.12,3.12,0,0,1,.58.92,2.75,2.75,0,0,1,.21,1,3,3,0,0,1-.1.76,2.92,2.92,0,0,1-.28.69,2.62,2.62,0,0,1-1,1L92,17.25H89.79L88.16,14.5H86.88v2.75Zm2-4.46h1.8a.74.74,0,0,0,.6-.33,1.35,1.35,0,0,0,.25-.85,1.19,1.19,0,0,0-.29-.84.85.85,0,0,0-.62-.31H86.88Z"/></g></g></svg>