<svg xmlns="http://www.w3.org/2000/svg" xmlns:xlink="http://www.w3.org/1999/xlink" viewBox="0 0 63.62 26"><defs><style>.cls-1{opacity:0.5;}.cls-2{fill:url(#linear-gradient);}.cls-3{fill:url(#linear-gradient-2);}.cls-4{fill:#454a73;}</style><linearGradient id="linear-gradient" x1="31.81" y1="26" x2="31.81" gradientUnits="userSpaceOnUse"><stop offset="0" stop-color="#e9e9ee"/><stop offset="1" stop-color="#fbfbfc"/></linearGradient><linearGradient id="linear-gradient-2" x1="31.81" y1="26" x2="31.81" gradientUnits="userSpaceOnUse"><stop offset="0" stop-color="#dadbe3"/><stop offset="1" stop-color="#f4f4f7"/></linearGradient></defs><title>btn_save_light_up_small</title><g id="Layer_2" data-name="Layer 2"><g id="Layer_2-2" data-name="Layer 2"><rect class="cls-2" width="63.62" height="26" rx="13" ry="13"/><path class="cls-3" d="M50.62.6a12.4,12.4,0,0,1,0,24.8H13A12.4,12.4,0,0,1,13,.6H50.62m0-.6H13a13,13,0,0,0,0,26H50.62a13,13,0,1,0,0-26Z"/><path class="cls-4" d="M23.83,16.41a3.2,3.2,0,0,1-2.24.9A4,4,0,0,1,20,17a3.94,3.94,0,0,1-1.3-.89,4.21,4.21,0,0,1-.88-1.39,4.76,4.76,0,0,1-.32-1.78,4.27,4.27,0,0,1,.32-1.66,4.17,4.17,0,0,1,.89-1.36,4.24,4.24,0,0,1,3-1.25,4.17,4.17,0,0,1,2.08.5,3.24,3.24,0,0,1,1.33,1.36l-1.46,1.1a2.1,2.1,0,0,0-.83-.89,2.31,2.31,0,0,0-1.18-.32,2,2,0,0,0-.89.2,2,2,0,0,0-.69.55,2.57,2.57,0,0,0-.44.82,3.15,3.15,0,0,0-.16,1,3,3,0,0,0,.17,1,2.52,2.52,0,0,0,.47.81,2.11,2.11,0,0,0,1.63.73,2.71,2.71,0,0,0,2.08-1.07v-.26H22.17V12.8h3.29v4.45H23.83Z"/><path class="cls-4" d="M33.76,15.52v1.73h-6V8.73h5.88v1.73H29.74v1.66H33.1v1.6H29.74v1.81Z"/><path class="cls-4" d="M42.7,17.25v-5.1l-1.85,3.71H39.8L38,12.15v5.1H36V8.73h2.14l2.21,4.45,2.22-4.45h2.12v8.52Z"/></g></g></svg>