<svg xmlns="http://www.w3.org/2000/svg" viewBox="0 0 24 24"><defs><style>.cls-1{opacity:0.5;}.cls-2{fill:#454a73;}.cls-3{fill:#fff;}</style></defs><title>btn_answer_yes_down</title><g id="Layer_2" data-name="Layer 2"><g id="Layer_2-2" data-name="Layer 2"><circle class="cls-2" cx="12" cy="12" r="12"/><path class="cls-3" d="M9.6,9.26H11v3.9a1.87,1.87,0,0,1-.25,1,1.72,1.72,0,0,1-.7.66A2.15,2.15,0,0,1,9,15a2.07,2.07,0,0,1-1.45-.47,1.7,1.7,0,0,1-.52-1.33H8.43a.94.94,0,0,0,.13.57A.53.53,0,0,0,9,14a.51.51,0,0,0,.44-.21,1,1,0,0,0,.15-.6Zm5.54,4.63H13.26L12.93,15H11.47l2.09-5.69h1.29L16.94,15H15.47Zm-1.55-1.06h1.22l-.61-2Z"/></g></g></svg>