<svg xmlns="http://www.w3.org/2000/svg" xmlns:xlink="http://www.w3.org/1999/xlink" width="41" height="41" viewBox="0 0 41 41"><defs><linearGradient id="a" x1="20.5" y1="40.5" x2="20.5" y2="0.5" gradientUnits="userSpaceOnUse"><stop offset="0" stop-color="#fbfbfc"/><stop offset="1" stop-color="#e9e9ee"/></linearGradient><linearGradient id="b" x1="20.5" y1="41" x2="20.5" gradientUnits="userSpaceOnUse"><stop offset="0" stop-color="#dadbe3"/><stop offset="1" stop-color="#f4f4f7"/></linearGradient></defs><title>btn_shuffle_light_down_disabled</title><path d="M20.5,40.5a20,20,0,0,1-20-20h0a20,20,0,0,1,40,0h0A20,20,0,0,1,20.5,40.5Z" style="stroke-miterlimit:10;fill:url(#a);stroke:url(#b)"/><polygon points="25.919 22.925 23.766 22.925 21.34 20.5 23.766 18.075 25.919 18.075 25.919 19.569 29.805 17.325 25.919 15.081 25.919 16.575 23.145 16.575 20.28 19.44 17.415 16.575 12.258 16.575 12.258 18.075 16.794 18.075 19.219 20.5 16.794 22.925 12.258 22.925 12.258 24.425 17.415 24.425 20.28 21.561 23.145 24.425 25.919 24.425 25.919 25.919 29.805 23.675 25.919 21.431 25.919 22.925" style="fill:#454a73"/><g style="opacity:0.5"><polygon points="20.28 21.561 29.289 30.57 30.35 29.509 21.34 20.5 30.35 11.491 29.289 10.43 20.28 19.44 11.271 10.43 10.21 11.491 19.219 20.5 10.21 29.509 11.271 30.57 20.28 21.561" style="fill:#e3352d"/></g></svg>