<svg xmlns="http://www.w3.org/2000/svg" xmlns:xlink="http://www.w3.org/1999/xlink" viewBox="0 0 53.62 26"><defs><style>.cls-1{opacity:0.5;}.cls-2{fill:url(#linear-gradient);}.cls-3{fill:url(#linear-gradient-2);}.cls-4{fill:#454a73;}</style><linearGradient id="linear-gradient" x1="26.81" y1="26" x2="26.81" gradientUnits="userSpaceOnUse"><stop offset="0" stop-color="#fbfbfc"/><stop offset="1" stop-color="#e9e9ee"/></linearGradient><linearGradient id="linear-gradient-2" x1="26.81" y1="26" x2="26.81" gradientUnits="userSpaceOnUse"><stop offset="0" stop-color="#dadbe3"/><stop offset="1" stop-color="#f4f4f7"/></linearGradient></defs><title>btn_ok_light_down_small</title><g id="Layer_2" data-name="Layer 2"><g id="Layer_2-2" data-name="Layer 2"><rect class="cls-2" width="53.62" height="26" rx="13" ry="13"/><path class="cls-3" d="M40.62.6a12.4,12.4,0,0,1,0,24.8H13A12.4,12.4,0,0,1,13,.6H40.62m0-.6H13A13,13,0,0,0,0,13H0A13,13,0,0,0,13,26H40.62a13,13,0,0,0,13-13h0a13,13,0,0,0-13-13Z"/><path class="cls-4" d="M21.8,17.32a4,4,0,0,1-1.73-.37,4.26,4.26,0,0,1-1.33-1,4.46,4.46,0,0,1-.86-1.39A4.36,4.36,0,0,1,17.57,13a4.25,4.25,0,0,1,.32-1.62A4.29,4.29,0,0,1,20.13,9a4.07,4.07,0,0,1,1.7-.35,4,4,0,0,1,1.73.37,4.21,4.21,0,0,1,1.33,1,4.45,4.45,0,0,1,.85,1.39A4.4,4.4,0,0,1,26,13a4.25,4.25,0,0,1-.32,1.62A4.31,4.31,0,0,1,23.5,17,4,4,0,0,1,21.8,17.32ZM19.58,13a3.19,3.19,0,0,0,.14,1,2.56,2.56,0,0,0,.43.82,2.1,2.1,0,0,0,.7.58,2.07,2.07,0,0,0,1,.22,2,2,0,0,0,1-.23,2.14,2.14,0,0,0,.7-.59,2.59,2.59,0,0,0,.41-.83A3.25,3.25,0,0,0,24,13a3.16,3.16,0,0,0-.14-1,2.41,2.41,0,0,0-.43-.82,2.15,2.15,0,0,0-.7-.56,2.09,2.09,0,0,0-1-.21,2,2,0,0,0-1,.22,2.17,2.17,0,0,0-.7.58,2.44,2.44,0,0,0-.42.82A3.29,3.29,0,0,0,19.58,13Z"/><path class="cls-4" d="M28.21,17.25V8.73h2V12.4l3.12-3.67H35.5l-3.19,3.8,3.41,4.72H33.47l-2.41-3.43-.89.92v2.51Z"/></g></g></svg>