<svg xmlns="http://www.w3.org/2000/svg" viewBox="0 0 1247.32 584.71"><defs><style>.cls-1{fill:#f7f8fd;}</style></defs><title>illu_streger</title><g id="Layer_2" data-name="Layer 2"><g id="Layer_1-2" data-name="Layer 1"><path class="cls-1" d="M1247.32,563.24q-11,8.53-21.88,17.23c-1.71,1.4-3.4,2.83-5.11,4.24h27Z"/><path class="cls-1" d="M1247.32,437.9q-13.59,8.19-27.08,16.53l0,0c-61.39,38.48-121,79.48-178,124.15l0,0c-2.53,2-5,4.07-7.53,6.1h30.33c2.38-1.93,4.73-3.87,7.12-5.79l0,0c56.17-44.13,175.22-122.74,175.22-122.74Z"/><path class="cls-1" d="M1191.83,453.69q27.55-17,55.49-33.3v-16.8q-42.23,24-83.65,49.37C1101.43,491.7,1041,533,983.13,578c-2.81,2.22-5.57,4.48-8.36,6.72h29.79c2.65-2.14,5.28-4.29,7.94-6.41h0c57.47-44.84,117.47-86,179.29-124.58Z"/><path class="cls-1" d="M1247.32,475.48c-49.8,32.51-98.29,66.86-145,103.73l0,0c-2.25,1.81-4.47,3.65-6.71,5.48h30.84c2.11-1.72,4.19-3.46,6.31-5.17l0,0c37.16-29.42,75.44-57.23,114.61-83.79Z"/><path class="cls-1" d="M1247.32,517q-42.79,30.24-83.93,62.83l0,0c-2,1.61-3.93,3.24-5.91,4.86h31.32c1.84-1.51,3.66-3,5.51-4.55h0q26.15-20.87,53-40.69Z"/><path class="cls-1" d="M974.51,447.73c69.87-42,141.5-80.81,214.42-117.28h0q29.07-14.4,58.36-28.3V289.61q-41.72,19.42-83,39.78C1091,365.93,1018.92,404.84,948.65,447c-65.4,39.71-128.92,82.14-189.82,128.48q-5.92,4.59-11.77,9.23h27.36q5.65-4.48,11.35-8.92h0c60.54-46.17,123.69-88.45,188.71-128Z"/><path class="cls-1" d="M1027.11,449.22c69.06-41.77,139.87-80.35,212-116.63h0l8.22-4.08V315.11q-16.76,8.13-33.45,16.41h0c-72.51,36.37-143.73,75.06-213.2,117l0,0C936,488,873.21,530.09,813,576.1h0q-5.49,4.27-10.93,8.6h28q5.23-4.16,10.5-8.29h0c59.81-45.84,122.2-87.83,186.46-127.17Z"/><path class="cls-1" d="M1080.89,450.72c54.45-33.13,110-64.26,166.43-93.83V342.43C1181.59,376.06,1117,411.68,1053.84,450h0C990,489.2,927.95,531.06,868.52,576.73h0c-3.37,2.64-6.7,5.31-10,8H887.1c3.2-2.56,6.39-5.13,9.62-7.66h0c59-45.51,120.67-87.22,184.14-126.31Z"/><path class="cls-1" d="M1135.81,452.21q55-33.7,111.5-64.77V371.88q-70.58,37.94-139.1,79.58l0,0c-63.06,39-124.29,80.53-182.95,125.88h0c-3.09,2.43-6.14,4.9-9.2,7.35h29.22c2.92-2.35,5.83-4.71,8.78-7h0c58.28-45.17,119.1-86.59,181.75-125.45Z"/><path class="cls-1" d="M777.06,441.71c72.84-43,147.5-82.68,223.5-119.85h0c80-38.76,161.26-74.75,243.44-108.65h0l3.26-1.32v-9.77q-12.13,4.88-24.25,9.81c-82.57,34-164.2,70-244.58,108.88C902.12,358.05,827.1,397.8,753.9,441,685.72,481.69,619.47,525.26,556,573q-7.63,5.83-15.17,11.76h24.49Q572.61,579,580,573.27h0c63.21-47.52,129.14-90.95,197-131.53Z"/><path class="cls-1" d="M824.39,443.22C896.53,400.43,970.47,361,1045.73,324h0q99.57-48.48,201.56-91.58V222c-75.67,31.64-150.53,65.11-224.32,100.95h0C947.35,360,873,399.55,800.56,442.46l0,0c-67.52,40.45-133.13,83.73-196,131.09h0q-7.2,5.52-14.32,11.12h25.25q6.91-5.44,13.89-10.81h0c62.58-47.19,127.85-90.32,195-130.65Z"/><path class="cls-1" d="M873.1,444.73c71.41-42.53,144.61-81.75,219.11-118.56h0q76.8-37.59,155.07-71.9V243.17q-90.14,39-178.49,81.91h0C993.91,362,920.33,401.32,848.55,444h0c-66.84,40.2-131.78,83.2-194,130.22h0q-6.77,5.21-13.47,10.49h26q6.49-5.12,13-10.18h0c61.93-46.84,126.52-89.69,193-129.78Z"/><path class="cls-1" d="M923.16,446.23C993.81,404,1066.24,364.95,1140,328.32h0q53.3-26.23,107.33-50.85V265.67q-66.2,29.65-131.37,61.56h0C1041.82,364,969,403.07,898,445.48l0,0c-66.13,40-130.36,82.67-192,129.34h0q-6.34,4.9-12.62,9.86H720q6.07-4.8,12.19-9.55h0c61.25-46.51,125.13-89.07,190.9-128.91Z"/><path class="cls-1" d="M602.7,435.65C678.06,391.56,755.32,351.07,834,313.17l0,0c82.74-39.5,166.76-76.07,251.76-110.43l0,0q80.29-32.2,161.52-61.88V133q-90.43,32.72-179.77,68.37c-85.32,34.43-169.67,71.08-252.73,110.67-78.95,38-156.5,78.6-232.15,122.82-70.54,41.71-139.06,86.45-204.72,135.51q-9.33,7.09-18.52,14.31h21.18q9-7.05,18.11-14h0c65.43-48.87,133.68-93.46,203.94-135.05Z"/><path class="cls-1" d="M643.94,437.17c74.78-43.82,151.43-84.1,229.46-121.82l0,0c82.1-39.31,165.47-75.73,249.8-110l.06,0q61.72-24.87,124-48.21v-8.25q-71.84,26.63-143,55.15h0c-84.67,34.3-168.38,70.8-250.8,110.21h0c-78.34,37.81-155.31,78.2-230.38,122.15h0c-70,41.46-138,85.9-203.15,134.6l0,0q-8.91,6.77-17.7,13.67h22.06q8.59-6.73,17.28-13.35h0c64.92-48.53,132.63-92.83,202.33-134.16Z"/><path class="cls-1" d="M686.78,438.69C760.94,395.13,837,355.06,914.35,317.53l0,0c81.43-39.13,164.12-75.41,247.77-109.53l.05,0q42.42-17.17,85.11-33.59v-8.75q-52.57,20-104.75,41l0,0c-84,34.18-167,70.54-248.81,109.76h0C816,354.06,739.64,394.24,665.16,437.93h0c-69.42,41.21-136.85,85.36-201.51,133.73h0q-8.48,6.46-16.86,13h22.9q8.17-6.4,16.44-12.71h0c64.38-48.2,131.53-92.2,200.64-133.29Z"/><path class="cls-1" d="M731.16,440.21C804.68,396.91,880,357.06,956.75,319.7h0c80.73-38.95,162.72-75.08,245.65-109.09h0q22.38-9.11,44.86-18v-9.27q-32.66,12.77-65.17,26h0c-83.3,34.07-165.64,70.28-246.73,109.32h0c-77,37.44-152.75,77.4-226.59,120.84h0C640,480.42,573.1,524.28,509,572.31h0q-8.06,6.15-16,12.39h23.71q7.76-6.08,15.6-12.08h0c63.81-47.86,130.36-91.57,198.86-132.41Z"/><path class="cls-1" d="M525.21,432.58C601.64,388,680,347,759.79,308.78l.05,0C843.75,268.89,929,232,1015.18,197.42l.08,0q115.09-45.82,232.06-86.56v-7q-125.38,43.42-248.77,92.23l-.06,0c-86.5,34.66-172,71.6-256.19,111.56l0,0c-80,38.36-158.67,79.4-235.35,124.13h0c-71.53,42.22-141,87.54-207.53,137.28h0q-10.15,7.72-20.14,15.59h19.37q9.8-7.71,19.74-15.27h0c66.33-49.57,135.57-94.74,206.86-136.83Z"/><path class="cls-1" d="M563.1,434.12C639,389.78,716.84,349.06,796.07,311l0,0c83.34-39.68,168-76.4,253.61-110.88l0,0q98.08-39.19,197.56-74.65V118q-108.27,38.3-215,80.7l0,0c-85.92,34.54-170.86,71.34-254.5,111.11l0,0c-79.51,38.17-157.62,79-233.8,123.47h0c-71,42-140,87-206.16,136.38l0,0q-9.74,7.4-19.34,15h20.29q9.4-7.38,18.93-14.63h0c65.89-49.22,134.66-94.1,205.45-135.94Z"/><path class="cls-1" d="M245.3,568.13c67.11-50.25,137.19-96,209.38-138.62l0,0C532.06,384.36,611.41,343,692.2,304.36l0,0c85-40.24,171.25-77.41,258.55-112.25l.07,0q135-53.44,272.54-100l.08,0q11.9-4,23.83-8V77.84q-19.13,6.33-38.22,12.77-137.87,46.85-273.39,100.13c-87.57,34.91-174.13,72.16-259.33,112.51-81,38.73-160.61,80.22-238.19,125.49-72.4,42.74-142.67,88.66-210,139.09q-11,8.35-21.73,16.89h17.45q10.59-8.36,21.33-16.56Z"/><path class="cls-1" d="M280.87,568.77C347.6,518.87,417.28,473.4,489,431.05l0,0C566,386.17,644.84,345,725.15,306.57l.06,0c84.44-40.05,170.22-77.07,257-111.78l.08,0c87.54-34.75,265-97.69,265-97.69V90.46l-9.15,3.07-.07,0q-137,46.75-271.75,99.84l-.05,0c-87,34.78-173.09,71.87-257.8,112l0,0C627.9,344,548.79,385.27,471.64,430.27h0c-72,42.48-141.85,88.09-208.78,138.17l0,0q-10.55,8-20.94,16.24H260.3q10.2-8,20.54-15.92Z"/><path class="cls-1" d="M123.14,565.54c68.22-51.64,139.56-98.6,213.13-142.25l0,0c78.78-46.2,159.64-88.46,242-127.84h0C665,254.39,753,216.6,842,181.26h0q137.69-54.19,278-101.11l.06,0Q1183.54,58.95,1247.32,39V34.08Q1178,55.66,1109,78.64,968.5,125.88,830.43,179.89C741.18,215.3,653,253.17,566.21,294.29c-82.55,39.49-163.58,81.87-242.51,128.21C250,466.28,178.54,513.39,110.23,565.22q-12.47,9.63-24.71,19.5H98.78q12.07-9.69,24.35-19.17Z"/><path class="cls-1" d="M150.55,566.19c68-51.29,139.09-98,212.36-141.35l.05,0c78.48-45.92,159-88,241-127.15h0C690.29,256.83,777.93,219.2,866.61,184h0q137.1-54,276.83-100.82l.11,0q51.74-17.33,103.73-33.83V44.08q-58,18.29-115.65,37.54l-.1,0q-139.94,47.14-277.44,101h0c-88.88,35.28-176.71,73-263.15,113.91h0C508.72,335.83,428,378,349.38,424l0,0c-73.43,43.53-144.65,90.33-212.77,141.8h0q-12.11,9.31-24,18.84h14.34q11.72-9.35,23.62-18.51Z"/><path class="cls-1" d="M180.08,566.84c67.75-50.95,138.53-97.3,211.48-140.44l0,0c78.14-45.66,158.32-87.47,240-126.48h0C717.48,259.26,804.7,221.78,893,186.7l0,0q136.45-53.82,275.51-100.53l.1,0q39.27-13.19,78.7-25.89V54.69q-45.8,14.66-91.41,29.93l-.11,0q-139.29,47-276.18,100.67l0,0C791.1,220.49,703.66,258,617.6,298.77h0c-81.85,39.1-162.22,81-240.53,126.82l0,0c-73.12,43.27-144.06,89.77-211.94,140.89h0q-11.73,9-23.25,18.19h15.4q11.35-9,22.88-17.86Z"/><path class="cls-1" d="M211.68,567.49c67.45-50.6,137.9-96.66,210.49-139.53l0,0C500,382.55,579.76,341,661,302.13h0c85.43-40.44,172.21-77.76,260-112.73h0q135.77-53.64,274.11-100.26l0,0q26-8.76,52.09-17.29V65.92q-32.84,10.69-65.59,21.68l-.08,0Q1043,134.57,906.83,188l0,0c-88,35-175,72.43-260.69,113h0c-81.46,38.91-161.45,80.62-239.41,126.15l0,0c-72.77,43-143.4,89.21-211,140h0q-11.35,8.67-22.5,17.54h16.44q11-8.69,22.11-17.21Z"/><path class="cls-1" d="M35.72,562.89c68.66-53.05,140.64-101.21,215-145.93h0C330.27,369.67,412,326.49,495.41,286.33h0c87.61-41.8,176.71-80.22,266.91-116.08h0q139.4-55,281.58-102.28h0q101.18-33.66,203.35-64.17V0Q1141.4,31.6,1036.47,66.4,894.23,114.07,754.56,168.84c-90.3,35.93-179.49,74.43-267.19,116.33-83.45,40.27-165.29,83.56-244.91,131C168.08,461,96.06,509.34,27.39,562.57Q13.54,573.5,0,584.71H8.63q13.4-11,27.07-21.81Z"/><path class="cls-1" d="M54.13,563.56c68.61-52.7,140.5-100.56,214.7-145h0c79.44-47,161-90,244.24-129.94h0C600.52,247,689.4,208.74,779.38,173h0q139.07-54.76,280.88-102h0q93.09-31,187-59.3v-4q-98.13,29.53-195.4,61.8h0Q910,117,770.64,171.62h0C680.52,207.42,591.52,245.76,504,287.46h0c-83.29,40.07-165,83.13-244.49,130.28h0c-74.28,44.58-146.21,92.59-214.86,145.47h0q-13.52,10.6-26.75,21.47h9.83Q40.78,574,54.12,563.57Z"/><path class="cls-1" d="M74.87,564.22c68.52-52.35,140.27-99.91,214.3-144.09h0c79.26-46.74,160.66-89.46,243.63-129.24h0c87.19-41.4,175.82-79.51,265.54-115.1l0,0q138.66-54.57,280-101.68l.05,0q84.07-28,168.81-53.83V15.89q-89.43,27.18-178.14,56.65h0Q927.65,120,788.67,174.38h0C698.79,210.06,610,248.24,522.71,289.74h0c-83.08,39.88-164.6,82.71-243.95,129.59h0c-74.12,44.31-145.95,92-214.52,144.55h0Q51,574.17,38.11,584.71h11q12.76-10.36,25.76-20.48Z"/><path class="cls-1" d="M97.89,564.88c68.39-52,140-99.26,213.77-143.17h0c79-46.47,160.2-89,242.89-128.54l0,0C641.53,251.93,729.87,214,819.28,178.52l0,0Q957.52,124.13,1098.4,77.12l.06,0q74.17-24.74,148.86-47.79V24.71q-79.81,24.53-159,50.87l-.06,0q-141,47.34-279.56,101.53l-.05,0C719,212.68,630.54,250.7,543.48,292l0,0c-82.83,39.68-164.12,82.28-243.27,128.89h0C226.22,465,154.56,512.38,86.1,564.55h0q-12.83,9.95-25.41,20.15H72.82q12.42-10,25.06-19.82Z"/></g></g></svg>