<svg xmlns="http://www.w3.org/2000/svg" viewBox="0 0 907.22 680.1"><defs><style>.cls-1{isolation:isolate;}.cls-2{fill:#454a73;opacity:0.15;mix-blend-mode:multiply;}.cls-3{fill:#fff;}.cls-4{fill:#ff3c32;}</style></defs><title>illu_skilt</title><g class="cls-1"><g id="Layer_2" data-name="Layer 2"><g id="Layer_1-2" data-name="Layer 1"><path class="cls-2" d="M29.52,611s598-144.9,775-184c57.41-12.68,102.72-11.35,102.72,19.46L729,661.4Z"/><path class="cls-3" d="M399.93,113.41l-295.32,432,524.53,48.86L399.93,113.41"/><path class="cls-4" d="M104.6,545.45l295.32-432L629.14,594.32,104.6,545.45M409.11.07A38.65,38.65,0,0,0,389.73,4a38.83,38.83,0,0,0-15,12.95L6.77,555.59a38.64,38.64,0,0,0-4.52,8.89A39.23,39.23,0,0,0,3.4,593.56a38.4,38.4,0,0,0,5.2,8.49,37.64,37.64,0,0,0,7,6.72,36.87,36.87,0,0,0,8.49,4.64,36.28,36.28,0,0,0,9.53,2.26L692,679.91a40,40,0,0,0,10.51-.35,39.3,39.3,0,0,0,9.83-3,38.59,38.59,0,0,0,22.47-32.37,39.77,39.77,0,0,0-.59-10.3,40.52,40.52,0,0,0-3.3-10L440.5,21A36.83,36.83,0,0,0,427.7,6.29,37.42,37.42,0,0,0,418.92,2,37.91,37.91,0,0,0,409.11.07"/><path d="M390.61,228.4a43.41,43.41,0,0,1,15.78,4,30.26,30.26,0,0,1,9.93,7.52,26.64,26.64,0,0,1,5,8.76,19.69,19.69,0,0,1,1.12,7.68c-.17,2.12-1.76,15.33-4.45,33.93S411.53,332.9,407,356.63s-10,47.21-15.77,64.59-12.09,28.7-18.47,28.15S362,436.62,359,418.51s-4.44-42-5.13-66.17-.57-48.32-.23-67.06.89-32,1.07-34.06a19.82,19.82,0,0,1,2.33-7.39,27,27,0,0,1,6.35-7.88,30.68,30.68,0,0,1,11-6,43.64,43.64,0,0,1,16.21-1.59m-20,246.65A33.69,33.69,0,0,0,345.78,483a34.15,34.15,0,0,0-11.93,23.33A34.83,34.83,0,0,0,352,539.79a34.08,34.08,0,0,0,13,3.92A33.68,33.68,0,0,0,390,535.83a34.15,34.15,0,0,0,12-23.42,34.83,34.83,0,0,0-18.31-33.5,34.06,34.06,0,0,0-13-3.86"/></g></g></g></svg>