<?xml version="1.0" encoding="utf-8"?>
<!-- Generator: Adobe Illustrator 21.1.0, SVG Export Plug-In . SVG Version: 6.00 Build 0)  -->
<svg version="1.1" id="Layer_1" xmlns="http://www.w3.org/2000/svg" xmlns:xlink="http://www.w3.org/1999/xlink" x="0px" y="0px"
	 viewBox="0 0 1247.3 584.7" style="enable-background:new 0 0 1247.3 584.7;" xml:space="preserve">
<style type="text/css">
	.st0{fill:#FFFFFF;}
</style>
<title>illu_streger</title>
<g id="Layer_2">
	<g id="Layer_1-2">
		<path class="st0" d="M1247.3,563.2c-7.3,5.7-14.6,11.4-21.9,17.2c-1.7,1.4-3.4,2.8-5.1,4.2h27L1247.3,563.2z"/>
		<path class="st0" d="M1247.3,437.9c-9.1,5.5-18.1,11-27.1,16.5l0,0c-61.4,38.5-121,79.5-178,124.2l0,0c-2.5,2-5,4.1-7.5,6.1h30.3
			c2.4-1.9,4.7-3.9,7.1-5.8l0,0c56.2-44.1,175.2-122.7,175.2-122.7L1247.3,437.9z"/>
		<path class="st0" d="M1191.8,453.7c18.4-11.3,36.9-22.4,55.5-33.3v-16.8c-28.2,16-56,32.5-83.7,49.4
			c-62.2,38.7-122.7,80-180.5,125c-2.8,2.2-5.6,4.5-8.4,6.7h29.8c2.7-2.1,5.3-4.3,7.9-6.4l0,0C1070,533.5,1130,492.3,1191.8,453.7
			L1191.8,453.7z"/>
		<path class="st0" d="M1247.3,475.5c-49.8,32.5-98.3,66.9-145,103.7l0,0c-2.2,1.8-4.5,3.7-6.7,5.5h30.8c2.1-1.7,4.2-3.5,6.3-5.2
			l0,0c37.2-29.4,75.4-57.2,114.6-83.8L1247.3,475.5z"/>
		<path class="st0" d="M1247.3,517c-28.5,20.2-56.5,41.1-83.9,62.8l0,0c-2,1.6-3.9,3.2-5.9,4.9h31.3c1.8-1.5,3.7-3,5.5-4.5l0,0
			c17.4-13.9,35.1-27.5,53-40.7L1247.3,517z"/>
		<path class="st0" d="M974.5,447.7c69.9-42,141.5-80.8,214.4-117.3l0,0c19.4-9.6,38.8-19,58.4-28.3v-12.5
			c-27.8,12.9-55.5,26.2-83,39.8c-73.3,36.5-145.4,75.5-215.6,117.6c-65.4,39.7-128.9,82.1-189.8,128.5c-3.9,3.1-7.9,6.1-11.8,9.2
			h27.4c3.8-3,7.5-6,11.3-8.9l0,0C846.3,529.6,909.5,487.3,974.5,447.7L974.5,447.7z"/>
		<path class="st0" d="M1027.1,449.2c69.1-41.8,139.9-80.4,212-116.6l0,0l8.2-4.1v-13.4c-11.2,5.4-22.3,10.9-33.4,16.4l0,0
			c-72.5,36.4-143.7,75.1-213.2,117l0,0C936,488,873.2,530.1,813,576.1l0,0c-3.7,2.8-7.3,5.7-10.9,8.6h28c3.5-2.8,7-5.5,10.5-8.3
			l0,0C900.4,530.6,962.8,488.6,1027.1,449.2L1027.1,449.2z"/>
		<path class="st0" d="M1080.9,450.7c54.4-33.1,110-64.3,166.4-93.8v-14.5c-65.7,33.6-130.3,69.2-193.5,107.6l0,0
			C990,489.2,928,531.1,868.5,576.7l0,0c-3.4,2.6-6.7,5.3-10,8h28.6c3.2-2.6,6.4-5.1,9.6-7.7l0,0
			C955.7,531.6,1017.4,489.9,1080.9,450.7L1080.9,450.7z"/>
		<path class="st0" d="M1135.8,452.2c36.7-22.5,73.8-44.1,111.5-64.8v-15.6c-47.1,25.3-93.4,51.8-139.1,79.6l0,0
			c-63.1,39-124.3,80.5-183,125.9l0,0c-3.1,2.4-6.1,4.9-9.2,7.3h29.2c2.9-2.3,5.8-4.7,8.8-7l0,0
			C1012.3,532.5,1073.2,491.1,1135.8,452.2L1135.8,452.2z"/>
		<path class="st0" d="M777.1,441.7c72.8-43,147.5-82.7,223.5-119.9l0,0c80-38.8,161.3-74.8,243.4-108.6l0,0l3.3-1.3v-9.8
			c-8.1,3.3-16.2,6.5-24.2,9.8c-82.6,34-164.2,70-244.6,108.9c-76.3,37.2-151.3,77-224.5,120.2c-68.2,40.7-134.4,84.3-197.9,132
			c-5.1,3.9-10.1,7.8-15.2,11.8h24.5c4.9-3.8,9.8-7.7,14.7-11.5l0,0C643.2,525.8,709.1,482.3,777.1,441.7L777.1,441.7z"/>
		<path class="st0" d="M824.4,443.2c72.1-42.8,146.1-82.2,221.3-119.2l0,0c66.4-32.3,133.6-62.8,201.6-91.6V222
			c-75.7,31.6-150.5,65.1-224.3,101l0,0c-75.6,37-150,76.6-222.4,119.5l0,0c-67.5,40.5-133.1,83.7-196,131.1l0,0
			c-4.8,3.7-9.6,7.4-14.3,11.1h25.2c4.6-3.6,9.2-7.2,13.9-10.8l0,0C692,526.7,757.2,483.5,824.4,443.2L824.4,443.2z"/>
		<path class="st0" d="M873.1,444.7c71.4-42.5,144.6-81.8,219.1-118.6l0,0c51.2-25.1,102.9-49,155.1-71.9v-11.1
			c-60.1,26-119.6,53.3-178.5,81.9l0,0C993.9,362,920.3,401.3,848.5,444l0,0c-66.8,40.2-131.8,83.2-194,130.2l0,0
			c-4.5,3.5-9,7-13.5,10.5h26c4.3-3.4,8.7-6.8,13-10.2l0,0C742,527.7,806.6,484.8,873.1,444.7L873.1,444.7z"/>
		<path class="st0" d="M923.2,446.2C993.8,404,1066.2,365,1140,328.3l0,0c35.5-17.5,71.3-34.4,107.3-50.9v-11.8
			c-44.1,19.8-87.9,40.3-131.4,61.6l0,0c-74.1,36.8-147,75.8-218,118.2l0,0c-66.1,40-130.4,82.7-192,129.3l0,0
			c-4.2,3.3-8.4,6.6-12.6,9.9H720c4-3.2,8.1-6.4,12.2-9.5l0,0C793.4,528.6,857.3,486.1,923.2,446.2L923.2,446.2z"/>
		<path class="st0" d="M602.7,435.6c75.4-44.1,152.6-84.6,231.3-122.5l0,0c82.7-39.5,166.8-76.1,251.8-110.4l0,0
			c53.5-21.5,107.4-42.1,161.5-61.9V133c-60.3,21.8-120.2,44.6-179.8,68.4c-85.3,34.4-169.7,71.1-252.7,110.7
			c-79,38-156.5,78.6-232.2,122.8c-70.5,41.7-139.1,86.5-204.7,135.5c-6.2,4.7-12.4,9.5-18.5,14.3h21.2c6-4.7,12-9.4,18.1-14l0,0
			C464.1,521.8,532.4,477.2,602.7,435.6L602.7,435.6z"/>
		<path class="st0" d="M643.9,437.2c74.8-43.8,151.4-84.1,229.5-121.8l0,0c82.1-39.3,165.5-75.7,249.8-110h0.1
			c41.1-16.6,82.5-32.6,124-48.2v-8.2c-47.9,17.8-95.6,36.1-143,55.1l0,0c-84.7,34.3-168.4,70.8-250.8,110.2l0,0
			c-78.3,37.8-155.3,78.2-230.4,122.1l0,0c-70,41.5-138,85.9-203.1,134.6l0,0c-5.9,4.5-11.8,9.1-17.7,13.7h22.1
			c5.7-4.5,11.5-8.9,17.3-13.3l0,0C506.5,522.8,574.2,478.5,643.9,437.2L643.9,437.2z"/>
		<path class="st0" d="M686.8,438.7c74.2-43.6,150.2-83.6,227.6-121.2l0,0c81.4-39.1,164.1-75.4,247.8-109.5h0.1
			c28.3-11.4,56.7-22.6,85.1-33.6v-8.8c-35,13.3-70,27-104.8,41l0,0c-84,34.2-167,70.5-248.8,109.8l0,0
			c-77.7,37.6-154.1,77.8-228.6,121.5l0,0c-69.4,41.2-136.9,85.4-201.5,133.7l0,0c-5.7,4.3-11.3,8.6-16.9,13h22.9
			c5.4-4.3,10.9-8.5,16.4-12.7l0,0C550.5,523.7,617.7,479.7,686.8,438.7L686.8,438.7z"/>
		<path class="st0" d="M731.2,440.2c73.5-43.3,148.8-83.1,225.6-120.5l0,0c80.7-39,162.7-75.1,245.7-109.1l0,0
			c14.9-6.1,29.9-12.1,44.9-18v-9.3c-21.8,8.5-43.5,17.2-65.2,26l0,0c-83.3,34.1-165.6,70.3-246.7,109.3l0,0
			c-77,37.4-152.8,77.4-226.6,120.8l0,0C640,480.4,573.1,524.3,509,572.3l0,0c-5.4,4.1-10.7,8.2-16,12.4h23.7
			c5.2-4.1,10.4-8.1,15.6-12.1l0,0C596.1,524.8,662.7,481,731.2,440.2L731.2,440.2z"/>
		<path class="st0" d="M525.2,432.6C601.6,388,680,347,759.8,308.8h0c83.9-39.9,169.2-76.8,255.3-111.4h0.1
			c76.7-30.5,154.1-59.4,232.1-86.6v-7c-83.6,28.9-166.5,59.7-248.8,92.2h-0.1c-86.5,34.7-172,71.6-256.2,111.6l0,0
			C662.3,346,583.6,387,507,431.8l0,0c-71.5,42.2-141,87.5-207.5,137.3l0,0c-6.8,5.1-13.5,10.3-20.1,15.6h19.4
			c6.5-5.1,13.1-10.2,19.7-15.3l0,0C384.7,519.8,454,474.6,525.2,432.6L525.2,432.6z"/>
		<path class="st0" d="M563.1,434.1c75.9-44.3,153.7-85.1,233-123.1l0,0c83.3-39.7,168-76.4,253.6-110.9l0,0
			c65.4-26.1,131.2-51,197.6-74.7V118c-72.2,25.5-143.8,52.4-215,80.7l0,0c-85.9,34.5-170.9,71.3-254.5,111.1l0,0
			c-79.5,38.2-157.6,79-233.8,123.5l0,0c-71,42-140,87-206.2,136.4l0,0c-6.5,4.9-12.9,9.9-19.3,15h20.3c6.3-4.9,12.6-9.8,18.9-14.6
			l0,0C423.5,520.8,492.3,475.9,563.1,434.1L563.1,434.1z"/>
		<path class="st0" d="M245.3,568.1c67.1-50.2,137.2-96,209.4-138.6l0,0c77.4-45.2,156.7-86.5,237.5-125.2l0,0
			c85-40.2,171.2-77.4,258.5-112.2h0.1c90-35.6,180.8-69,272.5-100h0.1c7.9-2.7,15.9-5.3,23.8-8v-6.3c-12.8,4.2-25.5,8.5-38.2,12.8
			c-91.9,31.2-183,64.6-273.4,100.1c-87.6,34.9-174.1,72.2-259.3,112.5c-81,38.7-160.6,80.2-238.2,125.5
			c-72.4,42.7-142.7,88.7-210,139.1c-7.3,5.6-14.6,11.2-21.7,16.9h17.4c7.1-5.6,14.2-11.1,21.3-16.6L245.3,568.1z"/>
		<path class="st0" d="M280.9,568.8C347.6,518.9,417.3,473.4,489,431l0,0c77-44.9,155.8-86,236.2-124.5h0.1
			c84.4-40,170.2-77.1,257-111.8h0.1c87.5-34.8,265-97.7,265-97.7v-6.6l-9.2,3.1h-0.1c-91.3,31.2-181.9,64.4-271.8,99.8h0
			c-87,34.8-173.1,71.9-257.8,112l0,0c-80.6,38.6-159.7,79.9-236.8,124.9l0,0c-72,42.5-141.9,88.1-208.8,138.2l0,0
			c-7,5.3-14,10.7-20.9,16.2h18.4C267.1,579.3,273.9,574,280.9,568.8L280.9,568.8z"/>
		<path class="st0" d="M123.1,565.5c68.2-51.6,139.6-98.6,213.1-142.2l0,0c78.8-46.2,159.6-88.5,242-127.8l0,0
			C665,254.4,753,216.6,842,181.3l0,0c91.8-36.1,184.5-69.8,278-101.1h0.1c42.3-14.1,84.7-27.8,127.3-41.1v-4.9
			c-46.2,14.4-92.3,29.2-138.3,44.6c-93.7,31.5-186.5,65.2-278.6,101.2c-89.2,35.4-177.4,73.3-264.2,114.4
			c-82.5,39.5-163.6,81.9-242.5,128.2c-73.7,43.8-145.2,90.9-213.5,142.7c-8.3,6.4-16.6,12.9-24.7,19.5h13.3
			C106.8,578.3,114.9,571.9,123.1,565.5L123.1,565.5z"/>
		<path class="st0" d="M150.6,566.2c68-51.3,139.1-98,212.4-141.4h0c78.5-45.9,159-88,241-127.1l0,0c86.3-40.9,174-78.5,262.7-113.7
			l0,0c91.4-36,183.7-69.6,276.8-100.8h0.1c34.5-11.6,69.1-22.8,103.7-33.8v-5.3c-38.7,12.2-77.2,24.7-115.7,37.5h-0.1
			c-93.3,31.4-185.8,65.1-277.4,101l0,0c-88.9,35.3-176.7,73-263.1,113.9l0,0C508.7,335.8,428,378,349.4,424l0,0
			c-73.4,43.5-144.6,90.3-212.8,141.8l0,0c-8.1,6.2-16.1,12.5-24,18.8h14.3C134.8,578.4,142.6,572.2,150.6,566.2L150.6,566.2z"/>
		<path class="st0" d="M180.1,566.8c67.8-51,138.5-97.3,211.5-140.4l0,0c78.1-45.7,158.3-87.5,240-126.5l0,0
			c85.9-40.7,173.1-78.1,261.4-113.2l0,0c91-35.9,182.8-69.4,275.5-100.5h0.1c26.2-8.8,52.4-17.4,78.7-25.9v-5.6
			c-30.5,9.8-61,19.7-91.4,29.9h-0.1c-92.9,31.3-184.9,64.9-276.2,100.7l0,0c-88.5,35.2-175.9,72.7-262,113.5l0,0
			c-81.8,39.1-162.2,81-240.5,126.8l0,0c-73.1,43.3-144.1,89.8-211.9,140.9l0,0c-7.8,6-15.6,12.1-23.2,18.2h15.4
			C164.8,578.7,172.5,572.7,180.1,566.8L180.1,566.8z"/>
		<path class="st0" d="M211.7,567.5c67.5-50.6,137.9-96.7,210.5-139.5l0,0C500,382.5,579.8,341,661,302.1l0,0
			c85.4-40.4,172.2-77.8,260-112.7l0,0c90.5-35.8,181.9-69.2,274.1-100.3l0,0c17.3-5.8,34.7-11.6,52.1-17.3v-5.9
			c-21.9,7.1-43.8,14.4-65.6,21.7h-0.1c-92.4,31.3-183.9,64.8-274.7,100.4l0,0c-88,35-175,72.4-260.7,113l0,0
			c-81.5,38.9-161.5,80.6-239.4,126.1l0,0c-72.8,43-143.4,89.2-211,140l0,0c-7.6,5.8-15.1,11.6-22.5,17.5h16.4
			c7.3-5.8,14.7-11.5,22.1-17.2L211.7,567.5z"/>
		<path class="st0" d="M35.7,562.9c68.7-53,140.6-101.2,215-145.9l0,0c79.5-47.3,161.3-90.5,244.7-130.6l0,0
			c87.6-41.8,176.7-80.2,266.9-116.1l0,0c92.9-36.7,186.8-70.8,281.6-102.3l0,0c67.5-22.4,135.2-43.8,203.3-64.2V0
			c-70.6,21.1-140.8,43.2-210.8,66.4c-94.8,31.8-188.8,65.9-281.9,102.4c-90.3,35.9-179.5,74.4-267.2,116.3
			c-83.5,40.3-165.3,83.6-244.9,131C168.1,461,96.1,509.3,27.4,562.6C18.2,569.9,9,577.2,0,584.7h8.6
			C17.6,577.4,26.6,570.1,35.7,562.9L35.7,562.9z"/>
		<path class="st0" d="M54.1,563.6c68.6-52.7,140.5-100.6,214.7-145l0,0c79.4-47,161-90,244.2-129.9l0,0
			C600.5,247,689.4,208.7,779.4,173l0,0c92.7-36.5,186.3-70.5,280.9-102l0,0c62.1-20.7,124.4-40.4,187-59.3v-4
			c-65.4,19.7-130.6,40.3-195.4,61.8l0,0c-94.6,31.7-188.3,65.7-281.2,102.1l0,0c-90.1,35.8-179.1,74.1-266.6,115.8l0,0
			c-83.3,40.1-165,83.1-244.5,130.3l0,0c-74.3,44.6-146.2,92.6-214.9,145.5l0,0c-9,7.1-17.9,14.2-26.8,21.5h9.8
			C36.4,577.6,45.2,570.5,54.1,563.6L54.1,563.6z"/>
		<path class="st0" d="M74.9,564.2c68.5-52.4,140.3-99.9,214.3-144.1l0,0c79.3-46.7,160.7-89.5,243.6-129.2l0,0
			c87.2-41.4,175.8-79.5,265.5-115.1l0,0c92.4-36.4,185.8-70.3,280-101.7h0.1c56-18.7,112.3-36.6,168.8-53.8v-4.4
			c-59.6,18.1-119,37-178.1,56.7l0,0c-94.3,31.6-187.7,65.6-280.4,101.8l0,0c-89.9,35.7-178.7,73.9-266,115.4l0,0
			c-83.1,39.9-164.6,82.7-244,129.6l0,0c-74.1,44.3-145.9,92-214.5,144.6l0,0c-8.8,6.9-17.5,13.8-26.1,20.8h11
			C57.6,577.8,66.2,571,74.9,564.2L74.9,564.2z"/>
		<path class="st0" d="M97.9,564.9c68.4-52,140-99.3,213.8-143.2l0,0c79-46.5,160.2-89,242.9-128.5l0,0
			c87-41.2,175.3-79.2,264.7-114.7l0,0c92.2-36.3,185.2-70.1,279.1-101.4h0.1c49.4-16.5,99.1-32.4,148.9-47.8v-4.6
			c-53.2,16.4-106.2,33.3-159,50.9h-0.1c-94,31.6-187.2,65.4-279.6,101.5h0C719,212.7,630.5,250.7,543.5,292l0,0
			c-82.8,39.7-164.1,82.3-243.3,128.9l0,0c-74,44.1-145.6,91.5-214.1,143.7l0,0c-8.6,6.6-17,13.3-25.4,20.2h12.1
			C81.1,578,89.5,571.4,97.9,564.9L97.9,564.9z"/>
	</g>
</g>
</svg>
