<svg xmlns="http://www.w3.org/2000/svg" viewBox="0 0 191.19 30.84"><defs><style>.cls-1{fill:#454a73;}.cls-2{fill:#fff;}.cls-3{fill:#ff3c32;}.cls-4{fill:#1d1f30;}</style></defs><title>logo_koreklar</title><g id="Layer_2" data-name="Layer 2"><g id="Layer_9" data-name="Layer 9"><path class="cls-1" d="M50.7,24.44V7.22h2.8a.55.55,0,0,1,.55.55v7.63l7.07-8a.55.55,0,0,1,.42-.19h2.23a.55.55,0,0,1,.42.92l-5.81,6.73,6.37,8.71a.55.55,0,0,1-.45.88H61.91a.55.55,0,0,1-.45-.23L56.26,17l-2.21,2.31v4.59a.55.55,0,0,1-.55.55Z"/><path class="cls-1" d="M88.9,24.44V7.2h7.63a4.9,4.9,0,0,1,2.2.5A5.69,5.69,0,0,1,100.46,9a6.2,6.2,0,0,1,1.14,1.85,5.56,5.56,0,0,1,.41,2.08,5.73,5.73,0,0,1-.84,3,4.81,4.81,0,0,1-2.27,2l3.42,5.64a.55.55,0,0,1-.47.84H99.39a.55.55,0,0,1-.47-.27l-3.36-5.51h-3.3v5.23a.55.55,0,0,1-.55.55Zm3.35-8.72h4.2a1.77,1.77,0,0,0,.86-.22,2.2,2.2,0,0,0,.69-.59,3,3,0,0,0,.46-.89,3.44,3.44,0,0,0,.17-1.09,3.12,3.12,0,0,0-.19-1.12,2.92,2.92,0,0,0-.52-.89,2.37,2.37,0,0,0-.75-.58,2,2,0,0,0-.86-.21H92.25Z"/><path class="cls-1" d="M119.28,22.06v1.83a.55.55,0,0,1-.55.55H107.31V7.2h11.2a.55.55,0,0,1,.55.55V9.58a.55.55,0,0,1-.55.55h-7.85v4.15h6.71a.55.55,0,0,1,.55.55v1.61a.55.55,0,0,1-.55.55h-6.71V21.5h8.07A.55.55,0,0,1,119.28,22.06Z"/><path class="cls-1" d="M124.16,24.44V7.22H127a.55.55,0,0,1,.55.55v7.63l7.07-8A.55.55,0,0,1,135,7.2h2.23a.55.55,0,0,1,.42.92l-5.81,6.73,6.37,8.71a.55.55,0,0,1-.45.88h-2.39a.55.55,0,0,1-.45-.23L129.72,17l-2.21,2.31v4.59a.55.55,0,0,1-.55.55Z"/><path class="cls-1" d="M142.66,24.44V7.2h2.8a.55.55,0,0,1,.55.55V21.5h8.24a.55.55,0,0,1,.55.55v1.83a.55.55,0,0,1-.55.55Z"/><path class="cls-1" d="M164.39,7.2h2.2a.55.55,0,0,1,.52.36l6.14,16.13a.55.55,0,0,1-.52.75h-2.26a.55.55,0,0,1-.52-.36l-1.47-3.94h-6L161,24.08a.55.55,0,0,1-.52.36h-2.26a.55.55,0,0,1-.52-.75l6.16-16.13A.55.55,0,0,1,164.39,7.2Zm3.48,10.59L165.49,11,163,17.79Z"/><path class="cls-1" d="M177.68,24.44V7.2h7.63a4.9,4.9,0,0,1,2.2.5A5.69,5.69,0,0,1,189.24,9a6.2,6.2,0,0,1,1.14,1.85,5.55,5.55,0,0,1,.41,2.08,5.73,5.73,0,0,1-.84,3,4.81,4.81,0,0,1-2.27,2l3.42,5.64a.55.55,0,0,1-.47.84h-2.47a.55.55,0,0,1-.47-.27l-3.36-5.51H181v5.23a.55.55,0,0,1-.55.55ZM181,15.72h4.2a1.77,1.77,0,0,0,.86-.22,2.2,2.2,0,0,0,.69-.59,3,3,0,0,0,.46-.89,3.45,3.45,0,0,0,.17-1.09,3.12,3.12,0,0,0-.19-1.12,2.92,2.92,0,0,0-.52-.89,2.37,2.37,0,0,0-.75-.58,2,2,0,0,0-.86-.21H181Z"/><path class="cls-1" d="M75.66,6.95a8.87,8.87,0,1,0,8.87,8.87A8.87,8.87,0,0,0,75.66,6.95Zm-5.54,8.87a5.53,5.53,0,0,1,8.1-4.91l-7.47,7.47A5.51,5.51,0,0,1,70.12,15.82Zm5.54,5.54a5.51,5.51,0,0,1-2.54-.62l7.46-7.46a5.53,5.53,0,0,1-4.92,8.08Z"/><polygon class="cls-2" points="17.4 1.82 25.19 15.42 32.98 29.02 17.4 29.02 1.82 29.02 9.61 15.42 17.4 1.82"/><path class="cls-3" d="M33,30.84H1.82A1.82,1.82,0,0,1,.24,28.11L15.82.92A1.82,1.82,0,0,1,19,.92L34.56,28.11A1.82,1.82,0,0,1,33,30.84ZM5,27.19H29.84L17.4,5.48Z"/><path class="cls-4" d="M17.4,21.53c-1.21,0-1.62-8.9-1.62-9.31S16.19,11,17.4,11,19,11.82,19,12.22,18.61,21.53,17.4,21.53Z"/><circle class="cls-4" cx="17.4" cy="24.36" r="1.62"/></g></g></svg>